# xmcd CD database file
#
# Track frame offsets:
#	150
#	21561
#	38860
#	57373
#	78354
#	86996
#	105068
#	114333
#	141063
#	162172
#	182937
#	196357
#	212113
#	237860
#	258775
#
# Disc length: 3561 seconds
#
# Revision: 0
# Processed by: cddbd v1.5.2PL0 Copyright (c) Steve Scherf et al.
# Submitted via: CDex 1.70beta3
#
DISCID=c70de70f
DTITLE=Eric Legnini - Trippin'
DYEAR=1900
DGENRE=Jazz
TTITLE0=Rock The Days
TTITLE1=Bullitt Mustang Fastback
TTITLE2=Amarone
TTITLE3=Con Alma
TTITLE4=Jade
TTITLE5=Bleak Beauty
TTITLE6=A Sleeping Bee
TTITLE7=Darn That Drean
TTITLE8=Casa Bamako
TTITLE9=Trippin'
TTITLE10=The Secret Life Of Plants
TTITLE11=Doo - Goo
TTITLE12=Them That Got
TTITLE13=The Shadow Of Your Smile
TTITLE14=Introspection #1
EXTD=
EXTT0=
EXTT1=
EXTT2=
EXTT3=
EXTT4=
EXTT5=
EXTT6=
EXTT7=
EXTT8=
EXTT9=
EXTT10=
EXTT11=
EXTT12=
EXTT13=
EXTT14=
PLAYORDER=
